<?xml version="1.0" standalone="no"?>
<!DOCTYPE svg PUBLIC "-//W3C//DTD SVG 20010904//EN"
 "http://www.w3.org/TR/2001/REC-SVG-20010904/DTD/svg10.dtd">
<svg version="1.0" xmlns="http://www.w3.org/2000/svg"
 width="896.000000pt" height="896.000000pt" viewBox="0 0 896.000000 896.000000"
 preserveAspectRatio="xMidYMid meet">
<metadata>
Created by potrace 1.14, written by Peter Selinger 2001-2017
</metadata>
<g transform="translate(0.000000,896.000000) scale(0.100000,-0.100000)"
fill="#000000" stroke="none">
<path d="M693 6942 l-42 -3 55 -132 c30 -73 78 -188 105 -257 28 -69 62 -152
75 -185 14 -33 29 -69 34 -80 4 -11 19 -47 33 -80 14 -33 40 -96 57 -140 18
-44 43 -104 56 -133 13 -29 24 -57 24 -62 0 -5 9 -29 19 -52 30 -67 47 -107
81 -193 17 -44 34 -84 38 -90 4 -5 14 -30 23 -55 9 -25 35 -90 58 -145 24 -55
44 -104 45 -110 2 -5 8 -21 14 -35 34 -82 76 -183 99 -240 14 -36 31 -79 38
-95 16 -35 38 -88 40 -95 1 -3 9 -22 18 -44 9 -21 17 -41 17 -43 0 -3 7 -20
15 -39 8 -19 22 -49 30 -67 8 -19 35 -87 61 -152 25 -65 49 -125 54 -134 13
-26 33 -75 35 -86 2 -6 12 -31 23 -55 11 -25 35 -81 52 -125 18 -44 37 -91 43
-105 6 -14 11 -27 12 -30 1 -3 7 -18 13 -33 7 -16 22 -52 33 -80 12 -29 27
-65 34 -82 7 -16 38 -91 68 -165 91 -223 238 -583 252 -615 7 -16 27 -64 43
-105 16 -41 77 -191 136 -333 58 -142 106 -262 106 -267 0 -6 26 -10 58 -10
70 -1 821 -1 843 0 12 0 35 45 78 150 34 82 66 162 73 177 6 15 12 30 13 33 0
3 11 27 23 54 12 27 22 53 22 57 0 5 4 17 10 27 5 9 32 73 60 142 49 120 59
144 80 193 5 12 25 60 43 107 46 113 235 577 252 615 7 17 23 55 35 85 12 30
30 73 41 96 10 22 19 45 19 50 0 6 10 30 22 55 12 24 23 49 24 54 3 12 122
301 189 460 25 61 48 115 49 120 2 6 8 21 13 35 6 14 41 99 78 190 37 91 73
179 80 195 8 17 28 66 45 110 18 44 38 94 45 110 7 17 38 92 69 168 31 75 62
149 68 165 6 15 12 29 13 32 3 10 26 66 34 85 20 46 40 94 66 159 15 38 31 77
35 85 5 9 28 63 51 121 22 58 49 123 59 145 9 22 25 63 35 90 10 28 21 55 25
60 4 6 17 37 30 70 13 33 34 84 47 113 12 29 23 55 23 58 0 6 59 149 92 223
10 24 16 46 13 49 -11 11 -486 8 -494 -3 -4 -5 -20 -39 -34 -75 -60 -151 -128
-317 -140 -345 -8 -16 -19 -41 -24 -55 -6 -14 -16 -38 -23 -55 -8 -16 -14 -34
-16 -40 -1 -5 -10 -28 -20 -50 -10 -22 -18 -42 -19 -45 -1 -5 -58 -144 -83
-200 -8 -19 -16 -39 -18 -45 -3 -13 -102 -254 -114 -280 -5 -11 -46 -110 -90
-220 -45 -110 -85 -209 -90 -220 -12 -27 -42 -100 -64 -155 -10 -25 -22 -54
-27 -65 -4 -11 -31 -76 -59 -145 -28 -69 -58 -139 -66 -157 -8 -17 -14 -34
-14 -38 0 -3 -9 -25 -19 -48 -11 -23 -20 -46 -22 -52 -1 -5 -15 -41 -31 -78
-30 -70 -44 -107 -47 -119 -2 -6 -40 -94 -71 -163 -5 -11 -43 -105 -85 -210
-42 -104 -80 -199 -85 -210 -5 -11 -27 -65 -50 -120 -71 -172 -98 -237 -133
-322 -19 -45 -32 -84 -29 -87 3 -3 0 -6 -6 -6 -7 0 -12 -6 -12 -14 0 -12 -20
-65 -50 -131 -5 -11 -29 -69 -54 -130 -71 -176 -116 -288 -132 -322 -8 -17
-14 -34 -14 -37 0 -3 -11 -30 -25 -60 -33 -73 -125 -304 -125 -316 0 -14 -29
40 -40 75 -7 22 -16 45 -20 50 -4 6 -22 48 -40 95 -19 47 -40 96 -47 110 -7
14 -13 29 -13 34 0 5 -12 36 -26 70 -47 109 -51 119 -119 286 -78 191 -97 237
-235 575 -56 138 -110 268 -120 290 -23 55 -65 159 -65 165 0 3 -3 10 -7 15
-3 6 -29 69 -58 140 -29 72 -58 144 -66 160 -31 71 -76 181 -78 190 -2 6 -8
21 -14 35 -17 37 -93 223 -96 235 -1 6 -10 28 -20 50 -10 22 -46 112 -82 200
-35 88 -69 169 -74 180 -11 24 -43 103 -105 257 -25 62 -50 122 -54 133 -33
74 -43 100 -75 179 -20 50 -36 96 -36 103 0 7 -4 13 -8 13 -5 0 -15 19 -22 43
-8 23 -17 47 -21 52 -3 6 -10 21 -14 35 -4 14 -15 43 -25 65 -10 22 -41 96
-68 165 -28 69 -59 143 -68 165 -10 22 -18 42 -19 45 -1 3 -6 16 -12 30 -6 14
-25 61 -43 105 -17 44 -38 96 -47 115 -8 19 -19 44 -23 55 -4 11 -15 36 -24
57 -9 20 -16 41 -16 47 0 7 -28 11 -77 12 -43 0 -139 1 -213 2 -74 1 -154 1
-177 -1z"/>
<path d="M7708 6910 c-5 -14 -31 -77 -57 -140 -53 -126 -63 -153 -66 -160 -5
-15 -27 -68 -35 -85 -5 -11 -26 -60 -45 -110 -20 -49 -42 -103 -49 -120 -8
-16 -29 -68 -47 -115 -19 -47 -36 -87 -39 -90 -3 -3 -6 -12 -8 -20 -2 -8 -9
-28 -17 -45 -7 -16 -23 -55 -35 -85 -12 -30 -28 -68 -35 -85 -12 -27 -25 -62
-30 -75 -1 -3 -7 -16 -12 -30 -15 -33 -68 -163 -138 -335 -31 -77 -63 -154
-71 -172 -8 -17 -14 -34 -14 -37 0 -3 -11 -29 -23 -58 -23 -51 -42 -97 -125
-298 -22 -52 -46 -113 -53 -135 -7 -22 -19 -47 -26 -56 -7 -8 -13 -20 -13 -26
0 -5 -34 -92 -75 -192 -41 -100 -75 -184 -75 -188 0 -3 -9 -24 -20 -47 -10
-23 -60 -142 -111 -266 -50 -124 -100 -244 -110 -267 -11 -23 -19 -48 -19 -55
0 -8 -4 -18 -9 -23 -4 -6 -52 -118 -106 -250 -53 -132 -103 -253 -111 -270
-29 -67 -94 -234 -94 -244 0 -6 -3 -11 -8 -11 -4 0 -13 -18 -20 -41 -7 -22
-21 -59 -32 -82 -10 -23 -33 -78 -50 -122 -18 -44 -38 -93 -45 -110 -8 -16
-36 -85 -63 -152 l-50 -123 34 0 c47 -1 374 -1 427 0 l42 0 34 88 c19 48 43
105 52 127 49 113 57 135 52 135 -3 0 -1 6 5 13 6 6 31 64 56 127 26 63 51
124 56 135 5 11 19 45 30 75 12 30 26 63 31 72 5 10 15 35 23 55 14 40 100
254 116 288 19 44 41 96 95 230 32 77 62 151 68 165 6 14 11 27 12 30 1 3 7
18 13 33 7 16 22 52 33 80 12 29 27 66 34 82 7 17 39 93 70 170 31 77 63 153
71 169 8 16 14 33 14 37 0 5 10 32 23 61 13 29 32 73 42 98 10 25 24 59 31 77
8 17 14 34 14 37 0 3 11 29 24 58 13 29 38 89 56 133 17 44 35 89 40 100 5 11
32 76 60 145 28 69 56 136 62 150 17 39 23 55 82 200 30 74 85 207 121 295 37
88 74 177 81 197 15 41 107 265 130 315 8 17 14 34 14 37 0 3 9 25 19 49 28
62 181 436 181 442 0 3 9 24 19 48 19 40 81 187 81 191 0 0 -113 1 -251 1
l-251 0 -10 -25z"/>
</g>
</svg>
